<svg xmlns="http://www.w3.org/2000/svg" width="42" height="41" fill="none" viewBox="0 0 42 41">
  <path fill="#000" d="M20.583 0a20.5 20.5 0 1 0 20.5 20.5A20.524 20.524 0 0 0 20.583 0Zm17.498 19.036h-8.653a21.099 21.099 0 0 1 4.009-10.474 17.483 17.483 0 0 1 4.645 10.474Zm-16.033 0V3.002a17.451 17.451 0 0 1 9.206 3.57 23.817 23.817 0 0 0-4.755 12.464h-4.451Zm-2.929 0h-4.451A23.816 23.816 0 0 0 9.913 6.572a17.451 17.451 0 0 1 9.206-3.569v16.033Zm0 2.928v16.034a17.45 17.45 0 0 1-9.206-3.57 23.817 23.817 0 0 0 4.755-12.464h4.451Zm2.929 0h4.451a23.817 23.817 0 0 0 4.756 12.464 17.451 17.451 0 0 1-9.207 3.569V21.964ZM7.727 8.562a21.099 21.099 0 0 1 4.012 10.474H3.087A17.483 17.483 0 0 1 7.728 8.562h-.001ZM3.085 21.964h8.654a21.098 21.098 0 0 1-4.01 10.474 17.484 17.484 0 0 1-4.644-10.474ZM33.44 32.438a21.1 21.1 0 0 1-4.012-10.474h8.65a17.483 17.483 0 0 1-4.641 10.474h.003Z"/>
</svg>
