<svg xmlns="http://www.w3.org/2000/svg" width="41" height="37" fill="none" viewBox="0 0 41 37">
  <path fill="#000" d="M36.167 6.042H32.25V2.208c0-.508-.206-.996-.574-1.355a1.98 1.98 0 0 0-1.384-.561H2.875A1.98 1.98 0 0 0 1.49.853c-.367.36-.573.847-.573 1.355v28.75c0 3.17 2.636 5.75 5.875 5.75h19.583c3.24 0 5.875-2.58 5.875-5.75v-1.916h3.917c2.16 0 3.916-1.72 3.916-3.834V9.875c0-2.114-1.756-3.833-3.916-3.833Zm-23.5 21.083H8.75V7.958h3.917v19.167Zm11.75 0H20.5V7.958h3.917v19.167Zm11.75-1.917H32.25V9.875h3.917v15.333Z"/>
</svg>
