<svg xmlns="http://www.w3.org/2000/svg" width="50" height="45" fill="none" viewBox="0 0 50 45">
  <path fill="#262323" d="M13.888 7.031c-.918 0-1.529.844-1.529 1.407v7.03H9.302v-7.03c0-.844-.611-1.407-1.529-1.407-.917 0-1.528.844-1.528 1.407v7.03H3.188v-7.03c0-.844-.612-1.407-1.529-1.407-.917 0-1.528.844-1.528 1.407v9.28c0 2.532 2.14 4.5 4.585 4.782v19.688C4.716 43.874 5.94 45 7.773 45c1.835 0 3.058-1.125 3.058-2.813V22.5c2.445-.281 4.585-2.25 4.585-4.781V8.437c0-.562-.611-1.406-1.528-1.406Zm6.114 1.407v16.874h3.057v16.875c0 1.688 1.223 2.813 3.057 2.813 1.834 0 3.057-1.125 3.057-2.813V0c-5.197 0-9.171 3.656-9.171 8.438Zm21.4-2.813c-4.28 0-7.644 4.219-7.644 9.281-.305 3.375 1.53 6.469 4.586 8.438v18.843c0 1.688 1.223 2.813 3.057 2.813 1.834 0 3.057-1.125 3.057-2.813V23.345c3.057-1.969 4.892-5.063 4.586-8.438 0-5.062-3.363-9.281-7.643-9.281Z"/>
</svg>
