<svg xmlns="http://www.w3.org/2000/svg" width="50" height="41" fill="none" viewBox="0 0 50 41">
  <path fill="#262323" d="M46.478 40.469c-2.3 1.156-5.366.385-6.9-1.927l-4.216-5.396h-20.7l-4.216 5.396c-1.917 2.698-5.367 3.083-8.05 1.156-1.917-1.542-2.683-3.854-2.3-5.781l2.683-14.26c.767-4.626 4.983-8.095 9.583-8.095h10.733v-5.78c0-3.084 2.3-5.782 5.367-5.782h11.883c1.15 0 1.917.77 1.917 1.927 0 1.156-.767 1.927-1.917 1.927h-11.5c-1.15 0-1.916.771-1.916 1.542v6.167h10.733c4.6 0 8.816 3.468 9.583 8.093l2.683 14.26c.383 2.699-.767 5.397-3.45 6.553ZM19.262 21.198c0-3.083-2.683-5.781-5.75-5.781-3.066 0-5.75 2.698-5.75 5.78 0 3.084 2.684 5.782 5.75 5.782 3.067 0 5.75-2.698 5.75-5.781Zm23 0c0-1.156-.767-1.927-1.917-1.927h-1.917v-1.927c0-1.157-.766-1.927-1.916-1.927s-1.917.77-1.917 1.927v1.927H32.68c-1.15 0-1.917.77-1.917 1.927 0 1.156.767 1.927 1.916 1.927h1.917v1.927c0 1.156.767 1.927 1.917 1.927s1.916-.77 1.916-1.927v-1.927h1.917c1.15 0 1.917-.77 1.917-1.927Z"/>
</svg>
