<svg xmlns="http://www.w3.org/2000/svg" width="46" height="45" fill="none" viewBox="0 0 46 45">
  <path fill="#262323" d="M20.678 0a20.6 20.6 0 0 1 20.6 20.6 20.513 20.513 0 0 1-2.175 9.224l5.34 5.343a2.169 2.169 0 0 1 0 3.066l-6.132 6.132a2.168 2.168 0 0 1-3.066 0l-5.343-5.34a20.512 20.512 0 0 1-9.224 2.174 20.6 20.6 0 0 1 0-41.199Zm11.5 29.03-3.067 3.066 7.667 7.666 3.066-3.066-7.667-7.666Zm4.04-13.238L15.872 36.14c1.557.48 3.178.724 4.807.722a16.218 16.218 0 0 0 5.941-1.118l-2.107-2.112a2.168 2.168 0 0 1 0-3.066l6.132-6.133a2.169 2.169 0 0 1 3.066 0l2.112 2.108a16.218 16.218 0 0 0 1.119-5.941c0-1.674-.254-3.288-.722-4.808Z"/>
</svg>
