<svg xmlns="http://www.w3.org/2000/svg" width="37" height="45" fill="none" viewBox="0 0 37 45">
  <path fill="#262323" d="M6.537 12.349c.874 0 1.582-.708 1.582-1.582V1.582a1.581 1.581 0 1 0-3.164 0v9.185c0 .874.707 1.582 1.582 1.582Zm26.938 6.328h-5.273a3.162 3.162 0 0 0-3.164-3.164H3.24a3.162 3.162 0 0 0-3.164 3.164v10.898c0 .15.009.295.03.435-.021.308-.03.615-.03.927C.077 38.703 6.374 45 14.14 45c7.035 0 12.862-5.164 13.9-11.91h5.435a3.162 3.162 0 0 0 3.164-3.163V21.84a3.162 3.162 0 0 0-3.164-3.164Zm-8.437 11.25h-.048c.03.334.048.668.048 1.01 0 6.021-4.878 10.899-10.899 10.899-6.02 0-10.898-4.878-10.898-10.898 0-.343.018-.677.048-1.011h-.048v-11.25h21.797v11.25Zm8.437-.352h-4.922v-7.734h4.922v7.734ZM21.39 12.35c.875 0 1.582-.708 1.582-1.582V1.582a1.581 1.581 0 1 0-3.164 0v9.185c0 .874.708 1.582 1.582 1.582Zm-7.47 0c.874 0 1.582-.708 1.582-1.582V1.582a1.581 1.581 0 1 0-3.164 0v9.185c0 .874.707 1.582 1.582 1.582Z"/>
</svg>
