<svg xmlns="http://www.w3.org/2000/svg" width="29" height="45" fill="none" viewBox="0 0 29 45">
  <path fill="#262323" d="M16.62 8.372c-1.152 0-2.137-.41-2.956-1.23-.82-.82-1.23-1.805-1.23-2.956s.41-2.137 1.23-2.957C14.483.409 15.468 0 16.619 0s2.137.41 2.958 1.229c.819.82 1.228 1.806 1.228 2.957 0 1.151-.41 2.136-1.228 2.955-.82.82-1.807 1.231-2.958 1.231ZM5.787 45c-.768 0-1.378-.27-1.832-.81-.453-.541-.593-1.178-.418-1.91l5.337-26.792-3.767 1.465v5.024c0 .593-.2 1.09-.601 1.49-.402.402-.9.603-1.492.603-.593 0-1.09-.201-1.493-.603-.4-.4-.6-.897-.6-1.49v-4.971c0-.837.226-1.605.68-2.303.453-.697 1.081-1.22 1.883-1.57l8.006-3.4a4.384 4.384 0 0 1 3.09-.133c1.046.332 1.866.969 2.459 1.91l2.093 3.35A11.09 11.09 0 0 0 22.113 18c1.221.872 2.617 1.448 4.186 1.727.524.07.96.305 1.309.705.348.402.523.847.523 1.335 0 .663-.235 1.213-.706 1.65-.471.435-1.003.6-1.597.496a15.018 15.018 0 0 1-5.152-1.754c-1.588-.889-2.94-1.996-4.057-3.322l-1.256 6.28 3.088 2.93c.418.418.741.88.969 1.385.226.507.339 1.056.339 1.65v11.825c0 .593-.2 1.09-.601 1.49-.402.402-.9.603-1.492.603-.593 0-1.09-.2-1.49-.603-.402-.4-.603-.897-.603-1.49V32.442l-4.396-4.186-3.4 15.174c-.105.419-.34.785-.706 1.1-.367.313-.795.47-1.283.47Z"/>
</svg>
