<svg xmlns="http://www.w3.org/2000/svg" width="196" height="219" fill="none" viewBox="0 0 196 219">
  <path fill="#AD7174" d="M41.113 218.974c22.533 0 40.799-6.609 40.799-14.76 0-8.152-18.266-14.761-40.799-14.761-22.532 0-40.798 6.609-40.798 14.761 0 8.151 18.266 14.76 40.798 14.76Z"/>
  <path fill="#943A41" d="M59.574 115.85a19.324 19.324 0 0 0-.29-2.214c-3.5-19.473-7.146-21.772-7.146-21.772s-13.773 0-16.638 1.533c-2.865 1.533-10.127 3.576-10.127 3.576s-4.948 12.774-6.51 22.226c-.58.54-.927 1.136-1.042 1.76-.897 5.535 5.902 32.587 6.307 42.607.406 10.048-5.324 32.444-5.324 32.444s3.79 5.677 16.927 4.258c0 0 6.077-25.433 8.536-41.244.26-1.732.434-3.662.492-5.677.666 2.469 1.187 4.683 1.447 6.387 1.65 10.275-1.476 33.949-1.476 33.949s7.495 5.364 17.767 2.526c0 0 3.096-26.824 3.645-43.316.406-10.531-3.588-26.654-6.568-37.043Z"/>
  <path fill="#262323" d="M18.862 196.01c-1.302 1.022-2.112 3.123-2.054 4.939 0 0 .058 1.476.955 2.952 3.27 5.394 24.768 10.219 27.17 5.138.81-1.731-.81-4.144-1.1-4.598-1.736-2.555-4.514-3.18-8.044-4.201-11.66-3.35-14.525-6.132-16.927-4.23Z"/>
  <path fill="#AD7174" d="M154.887 216.703c22.532 0 40.798-6.608 40.798-14.76 0-8.152-18.266-14.761-40.798-14.761-22.533 0-40.799 6.609-40.799 14.761s18.266 14.76 40.799 14.76Z"/>
  <path fill="#C6A8A7" d="M111.947 35.973s4.369 9.51 6.365 12.83c1.968 3.322-1.504 6.983-1.504 6.983l-6.945-9.906s-.954-5.677-1.041-7.267c-.058-1.59 2.43-.227 2.43-.227l.695-2.413Z"/>
  <path fill="#262323" d="M177.282 62.428c-.376.086-1.851.37-3.935-.34-8.073-2.725-15.769-15.13-15.769-15.13-3.791-6.13-2.315-5.563-5.006-9.14-3.357-4.485-5.295-4.854-12.905-12.745-1.1-1.135-4.919-5.166-4.919-5.166-1.158-1.959-1.592-4.315-1.187-6.529a9.553 9.553 0 0 1 3.444-5.705c.781-.625 1.678-1.136 2.575-1.618.984-.568 1.996-1.107 3.067-1.533 1.331-.51 2.72-.766 4.138-.965 3.674-.483 7.61-.34 10.821 1.448 3.386 1.902 5.585 5.478 6.366 9.225.145.738.29 1.561.839 2.129.319.34.753.54 1.187.71 2.749 1.248 5.642 2.753 6.828 5.478.637 1.447.666 3.094.145 4.57 1.215 1.902 3.82 2.356 5.816 3.435.868.454 1.649 1.078 2.344 1.76 1.389 1.362 2.517 3.008 3.067 4.825.55 1.845.463 3.889-.434 5.62-.261.483-.579.965-.521 1.505.058.482.405.88.695 1.249 1.736 2.129 2.806 4.967 2.199 7.635-.232 1.05-.608 1.789-1.129 2.725-1.07 1.874-2.402 2.98-3.733 4.088-1.678 1.447-2.575 2.157-3.993 2.47Z"/>
  <path fill="#C6A8A7" d="M158.532 62.088s-1.88 32.984-2.575 36.56c-.694 3.577-.202 14.25-.202 14.25h4.514l5.96-48.426s-2.72-5.421-7.697-2.384Z"/>
  <path fill="#F5B19B" d="m148.694 185.678-.607 6.387a43.646 43.646 0 0 1-5.035-.086 44.227 44.227 0 0 1-2.17-.227v-6.074h7.812Zm29.63-9.282 1.476 9.31c-.897 5.819-7.118 3.179-7.118 3.179l-1.476-9.282c0-.028 4.774 2.583 7.118-3.207Z"/>
  <path fill="#F5EAEA" d="M155.205 73.782c-1.476-.283-24.884 0-24.884 0s-5.643 17.741-3.27 25.292c2.373 7.55 13.773 86.632 13.773 86.632s6.945 1.164 7.842 0c.897-1.164-4.456-84.872-4.456-84.872.752 2.1 1.475 4.173 2.228 6.273 6.684 19.501 13.368 39.03 19.994 58.559 1.186 3.463 3.559 10.503 4.745 13.966 0 0 5.642 2.895 7.118-3.208 0 0-6.829-35.453-9.172-40.392-2.315-13.654-2.894-24.298-2.952-31.707-.029-4.201.058-9.31-2.083-15.669-2.286-6.84-6.047-11.751-8.883-14.874Z"/>
  <path fill="#943A41" d="M126.762 90.19c1.591-9.197 2.864-19.047 3.559-29.521.202-3.066.347-6.075.463-8.999 0 0-1.274-7.834.463-8.998 1.736-1.164 8.854-2.328 8.854-2.328s7.407 3.776 8.593 0c1.418-.141 3.849-.198 6.511.795 3.733 1.391 5.729 4.06 7.031 5.82 4.948 6.698 4.572 14.731 4.311 17.57-.376.51-1.128 1.42-2.401 1.93-2.923 1.192-5.729-.681-5.961-.823l-1.475-6.983s-2.952 0-2.952 4.94c0 4.938 1.476 10.161 1.476 10.161 3.993 4.968 4.89 6.245 4.89 6.245 1.128 1.618 2.575 3.974 3.935 7.04a46.971 46.971 0 0 1-20.775 5.62 46.43 46.43 0 0 1-16.522-2.47Z"/>
  <path fill="#262323" d="M148.058 192.093c1.331 2.952 3.183 8.317.955 12.49-.145.312-.232.539-.492.794-1.36 1.249-5.006.085-15.857 1.249-4.427.483-7.87 1.079-8.883-.567-.578-.937-.173-2.214.29-3.208.347-.284.954-.738 1.765-1.164 3.443-1.76 5.96-.567 8.304-2.327.666-.511.55-.682 1.765-2.328a31.673 31.673 0 0 1 4.89-5.223c2.46.085 4.861.17 7.263.284Zm31.742-6.415s2.951 2.044 3.848 8.146c.897 6.103-5.324 13.285-5.324 13.285-.839.482-2.488 1.306-4.687 1.391-.811.028-3.993.142-5.093-1.391-1.273-1.76.145-5.706 4.138-9.225.058-1.562.087-3.208.029-4.911a60.828 60.828 0 0 0-.319-5.365c1.071 1.419 2.923 2.015 4.572 1.504 1.534-.482 2.633-1.845 2.836-3.434Z"/>
  <path fill="#C6A8A7" d="M111.455 34.951s2.025 4.258 2.633 6.415c.608 2.158.376 2.527.376 2.527l-4.427.255-.434-1.76s-.897-4.967-1.562-5.932c-.666-.965 1.996-1.959 2.054-1.93.058.028 1.36.425 1.36.425Z"/>
  <path fill="#C6A8A7" d="M114.059 32.964s-1.013 3.549-2.922 4.145c-1.91.596-2.228-1.448-2.228-1.448l2.343-3.463 2.807.766Z"/>
  <path fill="#99999A" d="m114.609 29.7-6.453 12.348-7.928-3.208 3.617-13.313 10.764 4.173Z"/>
  <path fill="#C6A8A7" d="M114.088 32.88s.029-.88-1.418-1.335c-1.476-.483-2.025-.085-2.17.483-.145.567.318.993 1.157 1.249.782.283 2.431.539 2.431-.398Z"/>
  <path fill="#767676" d="m102.708 25.338 12.933 5.196.637-1.523-12.934-5.197-.636 1.524Z"/>
  <path fill="#767676" d="m104.719 24.736 10.015 4.024.636-1.524-10.014-4.023-.637 1.523Z"/>
  <path fill="#C6A8A7" d="M104.973 29.814s.261-.625-1.041-1.335-1.939-.567-2.228-.198c-.29.369.058.795.781 1.192.723.426 2.257 1.022 2.488.34Z"/>
  <path fill="#C6A8A7" d="M104.366 30.807s.144-.653-1.273-1.135c-1.418-.483-2.026-.227-2.228.17-.232.426.202.795.983 1.05.811.284 2.402.625 2.518-.085Z"/>
  <path fill="#C6A8A7" d="M104.019 31.97s.028-.652-1.389-.907c-1.418-.256-1.968.113-2.084.539-.144.454.348.738 1.129.88.781.113 2.372.199 2.344-.511Z"/>
  <path fill="#C6A8A7" d="M103.613 33.362s.029-.596-1.244-.795c-1.273-.227-1.736.085-1.852.483-.115.397.29.652 1.013.766.695.113 2.112.17 2.083-.454Z"/>
  <path fill="#943A41" d="M131.999 42.275a28.486 28.486 0 0 0-5.266 2.923c-2.344 1.675-3.791 3.265-4.659 4.23-.955 1.05-1.996 2.157-3.154 3.406 1.534 1.448 2.633 3.15 3.27 5.11a12.307 12.307 0 0 1 1.447 5.62c.173-.17.347-.312.491-.454.463-.426 1.331-1.334 2.344-2.555 4.254-5.11 11.43-15.498 5.527-18.28Z"/>
  <path fill="#C6A8A7" d="M109.516 41.65s.145 4.854 1.215 9.68c.435 1.93.84 3.775 1.36 5.507.782 2.582 1.765 4.882 3.386 6.585 2.662 2.838 5.006 2.044 6.337 1.533 0 0 .029 0 .058-.029.376-.17 2.546-1.362 2.199-4.456-.087-.767-.319-1.647-.753-2.668-.752-1.704-2.025-4.003-3.414-6.387-3.096-5.28-6.8-10.843-6.8-10.843l-3.588 1.078Z"/>
  <path fill="#F5B19B" d="m139.753 31.914-.318 9.424c4.225 2.611 9.52.312 9.52.312l.231-7.068-5.295-1.504-4.138-1.164Z"/>
  <path fill="#E39376" d="m139.696 33.873-.174 4.939c4.022 1.362 7.928-.398 9.549-1.306l.086-2.924-5.295-1.504c-1.07.113-2.025.199-2.372.255-.203 0-.955.199-1.794.54Z"/>
  <path fill="#F5B19B" d="M154.25 21.497s1.013 13.454-9.115 15.385c-10.127 1.93-12.21-7.92-11.834-16.35.376-8.431.318-9.68 4.572-11.724 4.224-2.015 16.985-2.412 16.377 12.689Z"/>
  <path fill="#FAC8BA" d="M148.53 25.48c-1.295.28-2.218 1.067-2.063 1.756.156.689 1.332 1.019 2.627.737 1.295-.281 2.218-1.068 2.063-1.757-.156-.689-1.332-1.018-2.627-.737Zm-12.104-.35c-1.154-.25-2.2.03-2.334.627-.135.597.692 1.284 1.846 1.535 1.155.25 2.2-.03 2.335-.627.134-.596-.692-1.284-1.847-1.535Z"/>
  <path fill="#262323" d="M146.639 20.29c-.432-.003-.787.782-.794 1.754-.007.972.337 1.762.768 1.765.432.003.787-.782.794-1.754.007-.972-.337-1.762-.768-1.765Zm-9.375-.399c-.432-.003-.787.783-.794 1.755-.007.972.337 1.762.768 1.765.432.003.787-.783.794-1.755.007-.971-.337-1.762-.768-1.765Z"/>
  <path fill="#E39376" d="M141.953 27.883c-1.245-.142-1.621-.567-1.737-.908-.144-.397.058-.823.492-1.277.695-.653.984-4.116 1.042-5.422 0-.085.058-.142.145-.142.086 0 .144.057.144.142 0 .199-.231 4.74-1.128 5.592-.376.34-.521.71-.434.965.116.37.665.625 1.504.71.087 0 .145.085.116.17 0 .142-.058.17-.144.17Z"/>
  <path fill="#262323" d="M149.997 19.935s-.869-1.703-2.171-1.987c-1.331-.283-1.302.341-.868.653.434.313 1.476.767 1.997 1.25.521.482 1.215.51 1.042.084Zm-15.568-.908s1.187-1.504 2.547-1.533c1.36-.028 1.215.568.723.823-.492.256-1.591.455-2.199.824-.637.369-1.331.284-1.071-.114Z"/>
  <path fill="#F5B19B" d="M153.498 22.206s0-.028.029-.085c.115-.397.665-1.987 2.343-1.561 1.939.454 2.171 1.646 2.113 4.03-.058 2.385-2.431 5.507-5.353 3.975l.26-4.599.608-1.76Z"/>
  <path fill="#F6FBFC" d="M140.361 29.956s2.98 1.476 5.874-.625c0 0 .26 1.675-1.765 2.924-2.026 1.249-3.906-1.42-4.109-2.3Z"/>
  <path fill="#262323" d="M133.388 16.955s6.394-1.902 8.565-7.38c0 0 3.472 4.456 6.857 6.67 3.386 2.243 3.82 6.472 3.82 6.472s4.571-4.939 4.398-7.124c-.319-3.89-6.366-5.592-5.845-8.29.376-1.93 3.646-2.27 3.53-2.866-.26-1.22-14.12-2.98-19.387 4.712-1.938 2.81-2.054 5.933-1.938 7.806Z"/>
  <path fill="#6E737E" d="M144.238 100.805s5.527 7.721 8.392 15.045c2.864 7.295 18.547 63.753 18.547 63.753s-25.636-75.902-26.939-78.798Z"/>
  <path fill="#943A41" d="M156.681 58.653s-8.015-2.668-7.871 9.992c.145 12.631 15.22 18.394 15.22 18.394l-3.935-7.04-4.89-6.245-1.476-10.162 2.952-4.939Z"/>
  <path fill="#C6A8A7" d="M82.693 43.467s-3.993 5.904-5.41 8.998c-1.418 3.094-1.13 3.69-1.13 3.69l6.57 1.363 1.07-2.527s2.46-7.238 3.675-8.515c1.215-1.278-2.547-3.35-2.633-3.35-.116-.028-2.142.34-2.142.34Z"/>
  <path fill="#C6A8A7" d="M81.015 39.89s-.26 4.94 1.939 6.557c2.199 1.618 3.5-.908 3.5-.908l-1.504-5.422-3.935-.227Z"/>
  <path fill="#807F7F" d="m80.61 35.775 5.932 17.144 10.88-2.64-2.055-17.882-14.757 3.378Z"/>
  <path fill="#C6A8A7" d="M80.957 39.38s.145-1.306 2.43-1.704c2.316-.397 3.068.34 3.155 1.22.087.88-.724 1.42-1.997 1.647-1.273.227-3.79.256-3.588-1.164Z"/>
  <path fill="#4D4E4E" d="m96.317 30.298-17.73 4.273.524 2.095 17.73-4.273-.524-2.095Z"/>
  <path fill="#4D4E4E" d="m93.83 29.138-13.713 3.304.525 2.095 13.713-3.304-.525-2.095Z"/>
  <path fill="#C6A8A7" d="M91.837 37.761s-.232-.993 1.88-1.76c2.113-.794 3.039-.425 3.386.2.347.624-.29 1.191-1.447 1.617-1.157.426-3.617.994-3.82-.056Z"/>
  <path fill="#C6A8A7" d="M92.502 39.351s-.057-1.022 2.142-1.42c2.227-.425 3.067.086 3.298.767.232.681-.492 1.136-1.736 1.363-1.186.227-3.675.397-3.704-.71Z"/>
  <path fill="#C6A8A7" d="M92.763 41.168s.115-.994 2.315-1.05c2.17-.057 2.893.567 3.009 1.277.087.71-.666 1.022-1.881 1.05-1.215.028-3.617-.227-3.443-1.277Z"/>
  <path fill="#C6A8A7" d="M93.052 43.353s.116-.88 2.054-.936c1.94-.057 2.576.51 2.663 1.135.086.625-.608.908-1.679.937-1.07.028-3.183-.199-3.038-1.136Z"/>
  <path fill="#F5EAEA" d="M71.206 75.457s-4.89 4.854-7.263 8.885c-.202.34-.376.653-.52.965-.695 1.362-1.766 1.42-3.01.766-2.517-1.362-5.7-5.705-7.783-8.288-.608-.738-1.679-2.3-2.923-4.343-5.208-8.516-13.57-25.604-4.109-28.499 0 0 12.385 6.074 18.461 17.116.868 1.59 1.65 2.98 2.315 4.23 4.05 7.408 4.832 9.168 4.832 9.168Z"/>
  <path fill="#F5EAEA" d="M84.111 53.913s-1.302 7.238-3.993 14.22c-1.07 2.783-2.112 5.48-3.27 7.949-1.736 3.718-3.761 6.897-6.539 9.112-4.63 3.69-7.928 1.958-9.809.908 0 0-.029-.029-.058-.029-.492-.34-3.472-2.583-2.286-7.181.29-1.135.84-2.413 1.736-3.832 1.505-2.385 3.935-5.564 6.54-8.8 5.816-7.21 12.644-14.76 12.644-14.76l5.035 2.413Z"/>
  <path fill="#F5EAEA" d="m84.111 53.913-6.163-2.896s-12.413 9.14-16.609 20.324c-4.195 11.184-1.91 13.71-.665 14.846 1.273 1.164 16.32-17.116 16.608-17.514.29-.397 6.83-14.76 6.83-14.76Z"/>
  <path fill="#AD7174" d="M76.82 76.082c-1.737 3.718-3.762 6.897-6.54 9.112-4.63 3.69-7.928 1.958-9.809.908 0 0-.029-.029-.058-.029-2.517-1.362-5.7-5.705-7.783-8.288-.608-.738-1.679-2.3-2.923-4.343l4.485-9.339s1.273 8.828 3.935 14.817c1.07 2.47 2.402 4.457 3.964 5.138.58.255 1.216.34 1.881.312 4.514-.227 10.793-6.216 12.848-8.288Z"/>
  <path fill="#262323" d="M50.228 7.786s5.41 6.53.781 13.37l-4.86-3.094 4.079-10.276Z"/>
  <path fill="#F5EAEA" d="M59.198 112.813s-.376.567-1.013.823c-.868.34-1.967.567-3.27.709-1.157.142-2.401.284-3.848.426-1.852.17-3.964.312-6.163.426-8.276.426-17.708.426-17.708.426h-.377l-9.143.227s-12.703-51.236-1.88-63.924c5.294-6.188 15.624-9.084 15.624-9.084 5.758-1.305 10.012-.851 15.625 2.271 4.92 2.725 8.507 6.273 9.751 10.872 0 0 1.245 6.642.319 21.743-.926 15.073 2.633 34.091 2.083 35.085Z"/>
  <path fill="#AD7174" d="M42.705 41.707s-.579 4.91-5.932 6.642c-6.337-1.59-7.205-6.415-7.205-6.415s-5.208 2.356-4.803 4.57c.405 2.214 6.568 10.446 8.304 6.955.058-.086.087-.17.145-.256a12.29 12.29 0 0 1 3.56-4.116c.81.653 2.111 1.93 3.153 4.06.029.084.087.17.116.255 1.591 3.491 6.54-4.94 6.828-7.21.319-2.242-4.166-4.485-4.166-4.485Z"/>
  <path fill="#AD7174" d="m35.558 48.747 2.662-.2s.434-.709.145-.85c-.29-.143-.869-.483-1.39-.455-.52.029-1.417-.198-1.678.057-.289.227.26 1.448.26 1.448Z"/>
  <path fill="#F5B19B" d="m42.3 33.844-.116 12.12c-5.555 3.123-12.21-.113-12.21-.113l.086-9.083 6.916-1.646 5.324-1.278Z"/>
  <path fill="#E39376" d="m42.27 36.342-.057 6.33c-5.237 1.533-10.156-.965-12.21-2.214l.028-3.747 6.916-1.646c1.36.199 2.575.397 3.009.454.318.085 1.273.369 2.315.823Z"/>
  <path fill="#F5B19B" d="M24.302 19.68S22.22 36.882 35.124 39.947c12.905 3.066 16.117-9.509 16.117-20.324 0-10.815.144-12.461-5.18-15.3C40.737 1.485 24.39.236 24.302 19.68Z"/>
  <path fill="#262323" d="M29.105 8.155s-2.835 4.003-3.212 7.806c-.376 3.804-1.273 5.025-3.327 4.372C20.512 19.68 21.148 10 26.183 6.339c5.006-3.662 2.922 1.816 2.922 1.816Z"/>
  <path fill="#0D1226" d="M36.137 33.021c-.637-.454-.868-1.135-.868-1.192-.03-.085.029-.17.115-.199.087-.028.174.029.203.114 0 0 .318.937 1.186 1.277.666.256 1.447.142 2.402-.369a.228.228 0 0 1 .231.057c.03.085 0 .17-.058.227-1.012.54-1.91.681-2.662.369a1.426 1.426 0 0 1-.55-.284Z"/>
  <path fill="#FAC8BA" d="M30.545 28.282c1.651.434 3.185.075 3.425-.804.24-.878-.904-1.942-2.556-2.377-1.651-.434-3.185-.075-3.425.803-.24.879.904 1.943 2.556 2.378Zm16.952-.192c1.495-.258 2.595-1.092 2.457-1.864-.138-.772-1.462-1.19-2.958-.931-1.495.257-2.595 1.092-2.457 1.864.139.772 1.463 1.19 2.958.931Z"/>
  <path fill="#262323" d="M33.968 23.055c.558.02 1.05-.967 1.096-2.204.046-1.238-.369-2.258-.928-2.278-.559-.02-1.05.967-1.096 2.204-.047 1.238.369 2.258.928 2.278Zm12.066 0c.559.02 1.05-.967 1.096-2.205.046-1.237-.369-2.257-.928-2.277-.559-.02-1.05.966-1.096 2.204-.047 1.238.369 2.257.928 2.277Z"/>
  <path fill="#AD7174" d="M44.904 115.197c-8.276.426-17.708.426-17.708.426h-.377c-1.33-1.76-1.707-7.012-1.707-7.012s-.52-4.343-1.302-6.954c-.781-2.583-.839-8.885-.839-8.885s.145-13.426.55-16.208c.405-2.781 1.302-6.528 1.302-6.528s2.864 7.068 2.199 23.134c-.52 13.767 13.686 20.409 17.882 22.027Z"/>
  <path fill="#F5EAEA" d="M15.824 52.153c-.984 1.022-1.852 2.157-2.517 3.35-4.514 8.09-4.254 37.78-3.762 41.953.492 4.173 7.118 26.739 8.015 27.591.868.851 10.62-1.959 10.62-1.959s-2.489-11.524-4.138-18.763c-1.62-7.238-1.013-23.19-.116-29.435.868-6.245 3.877-10.56 1.88-17.174 0 0-.144-1.107-1.301-2.214-1.187-1.107-5.411-4.087-8.826-3.037"/>
  <path fill="#E39376" d="M39.724 28.536c-.086 0-.144-.057-.144-.142 0-.085.058-.142.145-.142 1.1-.085 1.794-.397 1.996-.851.145-.37-.029-.823-.492-1.306-1.1-1.135-1.128-6.983-1.128-7.238 0-.085.058-.142.144-.142.087 0 .145.057.145.142 0 .056 0 5.96 1.042 7.04.55.567.752 1.135.55 1.617-.174.37-.695.88-2.258 1.022Z"/>
  <path fill="#262323" d="M29.858 17.892s1.186-2.13 2.922-2.441c1.736-.313 1.65.51 1.07.88-.578.397-1.938.908-2.632 1.504-.695.596-1.592.624-1.36.057Zm20.052-.313s-1.418-1.987-3.183-2.1c-1.736-.114-1.592.681-.955.993.608.341 2.026.682 2.778 1.193.752.539 1.65.454 1.36-.086ZM25.749 7.105s14.265 9.226 25.636 5.053c0 0 1.881-7.693-6.394-10.616-8.276-2.924-17.767-2.016-19.242 5.563Z"/>
  <path fill="#F5B19B" d="M25.228 20.645s0-.057-.029-.113c-.116-.54-.723-2.584-2.922-2.158-2.489.483-2.865 1.987-2.952 5.053-.087 3.065 2.807 7.21 6.626 5.393l-.058-5.904-.665-2.27Z"/>
  <path fill="#F5EAEA" d="M37.496 47.015s-2.459 1.25-4.08 4.343c-.057.085-.086.17-.115.256-1.65 3.264-7.379-4.4-7.755-6.472-.376-2.073 4.485-4.287 4.485-4.287s.84 4.911 7.465 6.16Z"/>
  <path fill="#F5EAEA" d="M36.079 47.044s2.112 1.192 3.588 4.257c.029.085.087.17.115.256 1.476 3.264 6.106-4.627 6.366-6.7.26-2.1-3.935-4.2-3.935-4.2s-.579 4.967-6.134 6.387Z"/>
  <path fill="#F5B19B" d="m29.308 120.789-12.182 3.605s.637 14.306 8.218 10.985c0 .028 6.076-1.788 3.964-14.59Z"/>
  <path fill="#943A41" d="m44.817 153.318 3.762-23.417s1.389 21.374 2.69 26.994c1.303 5.649-1.533 38.462-1.533 38.462s-1.938.909-4.919-1.731l.376-26.427-.376-13.881Z"/>
  <path fill="#262323" d="M43.66 193.427c-1.129 1.192-1.678 3.378-1.331 5.166 0 0 .29 1.448 1.36 2.782 4.022 4.911 25.955 6.784 27.633 1.419.578-1.816-1.36-3.974-1.736-4.399-2.084-2.3-4.92-2.555-8.565-3.066-12.008-1.732-15.22-4.088-17.361-1.902Z"/>
</svg>
