<svg xmlns="http://www.w3.org/2000/svg" width="42" height="41" fill="none" viewBox="0 0 42 41">
  <path fill="#E0DFDB" d="M20.853 7.214c0-.882-.178-1.755-.522-2.57a6.706 6.706 0 0 0-1.485-2.177 6.864 6.864 0 0 0-2.223-1.455A6.975 6.975 0 0 0 14.001.5H7.292a6.976 6.976 0 0 0-2.648.486 6.866 6.866 0 0 0-2.254 1.45A6.708 6.708 0 0 0 .883 4.624a6.596 6.596 0 0 0 0 5.178c.35.82.862 1.564 1.508 2.189a6.866 6.866 0 0 0 2.253 1.449 6.975 6.975 0 0 0 2.648.486h1.314v3.241s12.247-1.62 12.247-9.953Zm-6.237 17.73c0 2.456-2.03 4.445-4.536 4.445S5.544 27.4 5.544 24.945c0-2.456 2.03-4.445 4.536-4.445s4.536 1.99 4.536 4.445Zm-4.536 6.667c-3.217 0-9.64 1.59-9.64 4.741V40.5h19.28v-4.148c0-3.153-6.422-4.74-9.64-4.74Zm21.546-2.222c2.506 0 4.536-1.989 4.536-4.444 0-2.456-2.03-4.445-4.536-4.445s-4.536 1.99-4.536 4.445 2.03 4.444 4.536 4.444Zm0 2.222c-3.218 0-9.64 1.59-9.64 4.741V40.5h19.279v-4.148c0-3.153-6.422-4.74-9.64-4.74Zm-1.654-30c-1.817 0-3.56.708-4.845 1.967a6.645 6.645 0 0 0-2.006 4.747c0 8.333 10.886 9.953 10.886 9.953v-3.241h.406a6.976 6.976 0 0 0 2.649-.486 6.867 6.867 0 0 0 2.253-1.45 6.706 6.706 0 0 0 1.508-2.188 6.595 6.595 0 0 0 0-5.178 6.707 6.707 0 0 0-1.508-2.188 6.866 6.866 0 0 0-2.253-1.45 6.977 6.977 0 0 0-2.649-.485h-4.44Z"/>
</svg>
