<svg xmlns="http://www.w3.org/2000/svg" width="43" height="43" fill="none" viewBox="0 0 43 43">
  <path stroke="#E0DFDB" stroke-linecap="round" stroke-linejoin="round" stroke-width="3" d="M21.5 1.5C10.73 1.5 2 10.454 2 21.5s8.73 20 19.5 20S41 32.546 41 21.5s-8.73-20-19.5-20Z"/>
  <path stroke="#E0DFDB" stroke-linecap="round" stroke-linejoin="round" stroke-width="3" d="M6.428 34.192S10.775 28.5 21.5 28.5c10.725 0 15.074 5.692 15.074 5.692H6.428ZM21.5 21.5c1.552 0 3.04-.632 4.137-1.757A6.079 6.079 0 0 0 27.35 15.5a6.079 6.079 0 0 0-1.713-4.243A5.777 5.777 0 0 0 21.5 9.5c-1.552 0-3.04.632-4.137 1.757A6.079 6.079 0 0 0 15.65 15.5c0 1.591.616 3.117 1.713 4.243A5.777 5.777 0 0 0 21.5 21.5Z"/>
</svg>
