<svg xmlns="http://www.w3.org/2000/svg" width="31" height="30" fill="none" viewBox="0 0 31 30">
  <path fill="#E0DFDB" d="M5.918 10a1.25 1.25 0 1 0 .002-2.502A1.25 1.25 0 0 0 5.918 10Zm0 6.25a1.251 1.251 0 1 0 .002-2.502 1.251 1.251 0 0 0-.002 2.502Zm0 6.25a1.25 1.25 0 1 0 .002-2.502 1.25 1.25 0 0 0-.002 2.502Zm20.105-8.75H10.85c-.65 0-1.177.526-1.177 1.175v.15c0 .649.527 1.175 1.177 1.175h15.173c.65 0 1.177-.526 1.177-1.175v-.15c0-.649-.527-1.175-1.177-1.175Zm0 6.25H10.85c-.65 0-1.177.526-1.177 1.175v.15c0 .649.527 1.175 1.177 1.175h15.173c.65 0 1.177-.526 1.177-1.175v-.15c0-.649-.527-1.175-1.177-1.175Zm0-12.5H10.85c-.65 0-1.177.526-1.177 1.175v.15c0 .649.527 1.175 1.177 1.175h15.173c.65 0 1.177-.526 1.177-1.175v-.15c0-.649-.527-1.175-1.177-1.175Z"/>
</svg>
